<svg id="visual" viewBox="0 0 900 600" width="900" height="600" xmlns="http://www.w3.org/2000/svg" xmlns:xlink="http://www.w3.org/1999/xlink" version="1.1"><path d="M0 139L13.7 141C27.3 143 54.7 147 82 134C109.3 121 136.7 91 163.8 88C191 85 218 109 245.2 124C272.3 139 299.7 145 327 139C354.3 133 381.7 115 409 110C436.3 105 463.7 113 491 110C518.3 107 545.7 93 573 85C600.3 77 627.7 75 654.8 77C682 79 709 85 736.2 95C763.3 105 790.7 119 818 126C845.3 133 872.7 133 886.3 133L900 133L900 0L886.3 0C872.7 0 845.3 0 818 0C790.7 0 763.3 0 736.2 0C709 0 682 0 654.8 0C627.7 0 600.3 0 573 0C545.7 0 518.3 0 491 0C463.7 0 436.3 0 409 0C381.7 0 354.3 0 327 0C299.7 0 272.3 0 245.2 0C218 0 191 0 163.8 0C136.7 0 109.3 0 82 0C54.7 0 27.3 0 13.7 0L0 0Z" fill="#6198ff"></path><path d="M0 211L13.7 208C27.3 205 54.7 199 82 191C109.3 183 136.7 173 163.8 178C191 183 218 203 245.2 210C272.3 217 299.7 211 327 204C354.3 197 381.7 189 409 185C436.3 181 463.7 181 491 173C518.3 165 545.7 149 573 144C600.3 139 627.7 145 654.8 147C682 149 709 147 736.2 155C763.3 163 790.7 181 818 188C845.3 195 872.7 191 886.3 189L900 187L900 131L886.3 131C872.7 131 845.3 131 818 124C790.7 117 763.3 103 736.2 93C709 83 682 77 654.8 75C627.7 73 600.3 75 573 83C545.7 91 518.3 105 491 108C463.7 111 436.3 103 409 108C381.7 113 354.3 131 327 137C299.7 143 272.3 137 245.2 122C218 107 191 83 163.8 86C136.7 89 109.3 119 82 132C54.7 145 27.3 141 13.7 139L0 137Z" fill="#3c80ff"></path><path d="M0 421L13.7 407C27.3 393 54.7 365 82 339C109.3 313 136.7 289 163.8 289C191 289 218 313 245.2 324C272.3 335 299.7 333 327 330C354.3 327 381.7 323 409 333C436.3 343 463.7 367 491 361C518.3 355 545.7 319 573 304C600.3 289 627.7 295 654.8 300C682 305 709 309 736.2 326C763.3 343 790.7 373 818 382C845.3 391 872.7 379 886.3 373L900 367L900 185L886.3 187C872.7 189 845.3 193 818 186C790.7 179 763.3 161 736.2 153C709 145 682 147 654.8 145C627.7 143 600.3 137 573 142C545.7 147 518.3 163 491 171C463.7 179 436.3 179 409 183C381.7 187 354.3 195 327 202C299.7 209 272.3 215 245.2 208C218 201 191 181 163.8 176C136.7 171 109.3 181 82 189C54.7 197 27.3 203 13.7 206L0 209Z" fill="#0066ff"></path><path d="M0 505L13.7 499C27.3 493 54.7 481 82 460C109.3 439 136.7 409 163.8 400C191 391 218 403 245.2 412C272.3 421 299.7 427 327 431C354.3 435 381.7 437 409 440C436.3 443 463.7 447 491 436C518.3 425 545.7 399 573 392C600.3 385 627.7 397 654.8 407C682 417 709 425 736.2 439C763.3 453 790.7 473 818 470C845.3 467 872.7 441 886.3 428L900 415L900 365L886.3 371C872.7 377 845.3 389 818 380C790.7 371 763.3 341 736.2 324C709 307 682 303 654.8 298C627.7 293 600.3 287 573 302C545.7 317 518.3 353 491 359C463.7 365 436.3 341 409 331C381.7 321 354.3 325 327 328C299.7 331 272.3 333 245.2 322C218 311 191 287 163.8 287C136.7 287 109.3 311 82 337C54.7 363 27.3 391 13.7 405L0 419Z" fill="#0059dd"></path><path d="M0 601L13.7 601C27.3 601 54.7 601 82 601C109.3 601 136.7 601 163.8 601C191 601 218 601 245.2 601C272.3 601 299.7 601 327 601C354.3 601 381.7 601 409 601C436.3 601 463.7 601 491 601C518.3 601 545.7 601 573 601C600.3 601 627.7 601 654.8 601C682 601 709 601 736.2 601C763.3 601 790.7 601 818 601C845.3 601 872.7 601 886.3 601L900 601L900 413L886.3 426C872.7 439 845.3 465 818 468C790.7 471 763.3 451 736.2 437C709 423 682 415 654.8 405C627.7 395 600.3 383 573 390C545.7 397 518.3 423 491 434C463.7 445 436.3 441 409 438C381.7 435 354.3 433 327 429C299.7 425 272.3 419 245.2 410C218 401 191 389 163.8 398C136.7 407 109.3 437 82 458C54.7 479 27.3 491 13.7 497L0 503Z" fill="#004cbb"></path></svg>