<svg id="visual" viewBox="0 0 900 600" width="900" height="600" xmlns="http://www.w3.org/2000/svg" xmlns:xlink="http://www.w3.org/1999/xlink" version="1.1"><path d="M0 121L82 121L82 211L164 211L164 235L245 235L245 79L327 79L327 253L409 253L409 103L491 103L491 103L573 103L573 277L655 277L655 265L736 265L736 157L818 157L818 157L900 157L900 187L900 0L900 0L818 0L818 0L736 0L736 0L655 0L655 0L573 0L573 0L491 0L491 0L409 0L409 0L327 0L327 0L245 0L245 0L164 0L164 0L82 0L82 0L0 0Z" fill="#fa7268"></path><path d="M0 205L82 205L82 289L164 289L164 319L245 319L245 121L327 121L327 307L409 307L409 157L491 157L491 205L573 205L573 319L655 319L655 313L736 313L736 229L818 229L818 259L900 259L900 277L900 185L900 155L818 155L818 155L736 155L736 263L655 263L655 275L573 275L573 101L491 101L491 101L409 101L409 251L327 251L327 77L245 77L245 233L164 233L164 209L82 209L82 119L0 119Z" fill="#ea5e66"></path><path d="M0 433L82 433L82 463L164 463L164 427L245 427L245 361L327 361L327 421L409 421L409 397L491 397L491 457L573 457L573 493L655 493L655 445L736 445L736 481L818 481L818 427L900 427L900 361L900 275L900 257L818 257L818 227L736 227L736 311L655 311L655 317L573 317L573 203L491 203L491 155L409 155L409 305L327 305L327 119L245 119L245 317L164 317L164 287L82 287L82 203L0 203Z" fill="#d84a64"></path><path d="M0 487L82 487L82 553L164 553L164 505L245 505L245 511L327 511L327 475L409 475L409 517L491 517L491 529L573 529L573 559L655 559L655 559L736 559L736 547L818 547L818 493L900 493L900 493L900 359L900 425L818 425L818 479L736 479L736 443L655 443L655 491L573 491L573 455L491 455L491 395L409 395L409 419L327 419L327 359L245 359L245 425L164 425L164 461L82 461L82 431L0 431Z" fill="#c53762"></path><path d="M0 601L82 601L82 601L164 601L164 601L245 601L245 601L327 601L327 601L409 601L409 601L491 601L491 601L573 601L573 601L655 601L655 601L736 601L736 601L818 601L818 601L900 601L900 601L900 491L900 491L818 491L818 545L736 545L736 557L655 557L655 557L573 557L573 527L491 527L491 515L409 515L409 473L327 473L327 509L245 509L245 503L164 503L164 551L82 551L82 485L0 485Z" fill="#b0235f"></path></svg>