<svg width="24" height="24" viewBox="0 0 24 24" fill="none" xmlns="http://www.w3.org/2000/svg">
<g clip-path="url(#clip0_732_890)">
<path d="M7.16795 0.445406C7.4743 -0.0141227 8.09517 -0.138296 8.5547 0.168056L11.5547 2.16806C12.0142 2.47441 12.1384 3.09528 11.8321 3.55481L9.83205 6.55481C9.5257 7.01434 8.90483 7.13851 8.4453 6.83216C7.98577 6.5258 7.8616 5.90493 8.16795 5.44541L8.95578 4.26366C5.52779 5.16703 3 8.28837 3 12.0001C3 15.8061 5.65879 18.9935 9.22129 19.8019C9.75988 19.9241 10.0974 20.4598 9.97521 20.9984C9.85299 21.537 9.31731 21.8745 8.77871 21.7523C4.32525 20.7418 1 16.7605 1 12.0001C1 7.42551 4.07172 3.56835 8.2651 2.37869L7.4453 1.83216C6.98577 1.5258 6.8616 0.904935 7.16795 0.445406ZM14.0248 3.00184C14.147 2.46324 14.6827 2.1257 15.2213 2.24791C19.6747 3.25846 23 7.23976 23 12.0001C23 16.5747 19.9283 20.4319 15.7349 21.6215L16.5547 22.1681C17.0142 22.4744 17.1384 23.0953 16.8321 23.5548C16.5257 24.0143 15.9048 24.1385 15.4453 23.8322L12.4453 21.8322C11.9858 21.5258 11.8616 20.9049 12.1679 20.4454L14.1679 17.4454C14.4743 16.9859 15.0952 16.8617 15.5547 17.1681C16.0142 17.4744 16.1384 18.0953 15.8321 18.5548L15.0442 19.7366C18.4722 18.8332 21 15.7118 21 12.0001C21 8.1941 18.3412 5.0067 14.7787 4.19833C14.2401 4.07612 13.9026 3.54043 14.0248 3.00184Z" fill="black"/>
</g>
<defs>
<clipPath id="clip0_732_890">
<rect width="24" height="24" fill="white"/>
</clipPath>
</defs>
</svg>
